<svg xmlns="http://www.w3.org/2000/svg" width="512" height="512" viewBox="0 0 512 512">
  <defs>
    <linearGradient id="bg" x1="0" y1="0" x2="1" y2="1">
      <stop offset="0%" stop-color="#0891B2"/>
      <stop offset="100%" stop-color="#7C3AED"/>
    </linearGradient>
    <linearGradient id="bar1" x1="0" y1="1" x2="0" y2="0">
      <stop offset="0%" stop-color="#10B981" stop-opacity="0.85"/>
      <stop offset="100%" stop-color="#10B981" stop-opacity="1"/>
    </linearGradient>
    <linearGradient id="bar2" x1="0" y1="1" x2="0" y2="0">
      <stop offset="0%" stop-color="#22D3EE" stop-opacity="0.85"/>
      <stop offset="100%" stop-color="#22D3EE" stop-opacity="1"/>
    </linearGradient>
    <linearGradient id="bar3" x1="0" y1="1" x2="0" y2="0">
      <stop offset="0%" stop-color="#A78BFA" stop-opacity="0.85"/>
      <stop offset="100%" stop-color="#A78BFA" stop-opacity="1"/>
    </linearGradient>
  </defs>
  <rect width="512" height="512" rx="96" fill="url(#bg)"/>
  <g transform="translate(96 128)">
    <rect x="0"   y="180" width="56" height="100" rx="8" fill="url(#bar1)"/>
    <rect x="80"  y="120" width="56" height="160" rx="8" fill="url(#bar2)"/>
    <rect x="160" y="60"  width="56" height="220" rx="8" fill="url(#bar3)"/>
    <rect x="240" y="100" width="56" height="180" rx="8" fill="url(#bar2)"/>
    <rect x="320" y="40"  width="56" height="240" rx="8" fill="url(#bar1)"/>
    <path d="M 28 160 Q 108 100 188 80 T 348 20"
          fill="none"
          stroke="white"
          stroke-width="10"
          stroke-linecap="round"
          opacity="0.95"/>
    <circle cx="28" cy="160" r="9" fill="white"/>
    <circle cx="108" cy="100" r="9" fill="white"/>
    <circle cx="188" cy="80" r="9" fill="white"/>
    <circle cx="268" cy="55" r="9" fill="white"/>
    <circle cx="348" cy="20" r="9" fill="white"/>
  </g>
</svg>
